<?xml version="1.0" encoding="UTF-8"?>
<svg xmlns="http://www.w3.org/2000/svg" xmlns:xlink="http://www.w3.org/1999/xlink" width="50px" height="50px" viewBox="0 0 50 50" version="1.1">
<defs>
<clipPath id="clip1">
  <path d="M 3.667969 5 L 49 5 L 49 42 L 3.667969 42 Z M 3.667969 5 "/>
</clipPath>
<clipPath id="clip2">
  <path d="M 3.792969 7 C 3.824219 6.613281 3.96875 6.261719 4.1875 5.964844 C 4.273438 5.851562 4.367188 5.746094 4.476562 5.652344 C 4.835938 5.335938 5.308594 5.144531 5.824219 5.144531 L 46.660156 5.144531 C 47.179688 5.144531 47.652344 5.335938 48.011719 5.652344 C 48.121094 5.75 48.21875 5.855469 48.300781 5.96875 C 48.519531 6.261719 48.660156 6.613281 48.695312 7 C 48.703125 7.066406 48.703125 7.136719 48.703125 7.207031 L 48.703125 39.855469 C 48.703125 40.980469 47.789062 41.894531 46.660156 41.894531 L 5.824219 41.894531 C 4.699219 41.894531 3.785156 40.980469 3.785156 39.855469 L 3.785156 7.207031 C 3.78125 7.136719 3.785156 7.070312 3.792969 7 Z M 7.867188 11.433594 L 7.867188 37.8125 L 44.621094 37.8125 L 44.621094 11.433594 L 27.519531 25.113281 C 26.773438 25.710938 25.714844 25.710938 24.96875 25.113281 Z M 40.839844 9.226562 L 11.644531 9.226562 L 26.242188 20.90625 Z M 40.839844 9.226562 "/>
</clipPath>
<clipPath id="clip3">
  <path d="M 1 8 L 46.332031 8 L 46.332031 45 L 1 45 Z M 1 8 "/>
</clipPath>
<clipPath id="clip4">
  <path d="M 1.300781 9.957031 C 1.335938 9.574219 1.476562 9.21875 1.695312 8.925781 C 1.78125 8.808594 1.878906 8.703125 1.984375 8.609375 C 2.34375 8.292969 2.816406 8.101562 3.335938 8.101562 L 44.171875 8.101562 C 44.691406 8.101562 45.164062 8.292969 45.523438 8.613281 C 45.628906 8.707031 45.726562 8.8125 45.8125 8.925781 C 46.03125 9.21875 46.171875 9.574219 46.203125 9.957031 C 46.210938 10.027344 46.214844 10.09375 46.214844 10.164062 L 46.214844 42.8125 C 46.214844 43.941406 45.300781 44.855469 44.171875 44.855469 L 3.335938 44.855469 C 2.207031 44.855469 1.292969 43.941406 1.292969 42.8125 L 1.292969 10.164062 C 1.292969 10.09375 1.292969 10.027344 1.300781 9.957031 Z M 5.375 14.390625 L 5.375 40.769531 L 42.128906 40.769531 L 42.128906 14.390625 L 25.027344 28.070312 C 24.28125 28.667969 23.222656 28.667969 22.476562 28.070312 Z M 38.351562 12.183594 L 9.15625 12.183594 L 23.753906 23.863281 Z M 38.351562 12.183594 "/>
</clipPath>
</defs>
<g id="surface1">
<g clip-path="url(#clip1)" clip-rule="nonzero">
<g clip-path="url(#clip2)" clip-rule="evenodd">
<path style=" stroke:none;fill-rule:nonzero;fill:rgb(20%,52.156863%,84.313725%);fill-opacity:1;" d="M 3.78125 5.144531 L 3.78125 41.894531 L 48.703125 41.894531 L 48.703125 5.144531 Z M 3.78125 5.144531 "/>
</g>
</g>
<g clip-path="url(#clip3)" clip-rule="nonzero">
<g clip-path="url(#clip4)" clip-rule="evenodd">
<path style=" stroke:none;fill-rule:nonzero;fill:rgb(93.333333%,54.901961%,24.705882%);fill-opacity:1;" d="M 1.292969 8.101562 L 1.292969 44.855469 L 46.214844 44.855469 L 46.214844 8.101562 Z M 1.292969 8.101562 "/>
</g>
</g>
</g>
</svg>
