<svg xmlns="http://www.w3.org/2000/svg" xmlns:xlink="http://www.w3.org/1999/xlink" width="1080" zoomAndPan="magnify" viewBox="0 0 810 809.999993" height="1080" preserveAspectRatio="xMidYMid meet" version="1.0"><defs><clipPath id="7865aa45e5"><path d="M 0 127.445312 L 475.144531 127.445312 L 475.144531 670.464844 L 0 670.464844 Z M 0 127.445312 " clip-rule="nonzero"/></clipPath><clipPath id="b18d218a9c"><path d="M 0 398.953125 L 475.144531 127.445312 L 475.144531 670.464844 Z M 0 398.953125 " clip-rule="nonzero"/></clipPath><clipPath id="9749a5d378"><path d="M 304.578125 163.707031 L 758.566406 163.707031 L 758.566406 682.546875 L 304.578125 682.546875 Z M 304.578125 163.707031 " clip-rule="nonzero"/></clipPath><clipPath id="d9449178cd"><path d="M 304.578125 423.125 L 758.566406 163.707031 L 758.566406 682.546875 Z M 304.578125 423.125 " clip-rule="nonzero"/></clipPath><clipPath id="549ac79035"><path d="M 356.003906 151.613281 L 809.992188 151.613281 L 809.992188 670.457031 L 356.003906 670.457031 Z M 356.003906 151.613281 " clip-rule="nonzero"/></clipPath><clipPath id="9cfabc05b4"><path d="M 356.003906 411.035156 L 809.992188 151.613281 L 809.992188 670.457031 Z M 356.003906 411.035156 " clip-rule="nonzero"/></clipPath></defs><g clip-path="url(#7865aa45e5)"><g clip-path="url(#b18d218a9c)"><path fill="#ee8c3f" d="M 0 670.464844 L 0 127.445312 L 475.144531 127.445312 L 475.144531 670.464844 Z M 0 670.464844 " fill-opacity="1" fill-rule="nonzero"/></g></g><g clip-path="url(#9749a5d378)"><g clip-path="url(#d9449178cd)"><path fill="#1d1f21" d="M 304.578125 682.546875 L 304.578125 163.707031 L 758.566406 163.707031 L 758.566406 682.546875 Z M 304.578125 682.546875 " fill-opacity="1" fill-rule="nonzero"/></g></g><g clip-path="url(#549ac79035)"><g clip-path="url(#9cfabc05b4)"><path fill="#ee8c3f" d="M 356.003906 670.457031 L 356.003906 151.613281 L 809.992188 151.613281 L 809.992188 670.457031 Z M 356.003906 670.457031 " fill-opacity="1" fill-rule="nonzero"/></g></g></svg>