<svg xmlns="http://www.w3.org/2000/svg" xmlns:xlink="http://www.w3.org/1999/xlink" width="50" zoomAndPan="magnify" viewBox="0 0 37.5 37.499999" height="50" preserveAspectRatio="xMidYMid meet" version="1.0"><defs><clipPath id="92589f6dcd"><path d="M 3.753906 8 L 35.582031 8 L 35.582031 30 L 3.753906 30 Z M 3.753906 8 " clip-rule="nonzero"/></clipPath><clipPath id="ab4937ae51"><path d="M 3.015625 10.191406 L 3.015625 27.871094 C 3.015625 29.507812 4.339844 30.832031 5.976562 30.832031 L 33.121094 30.832031 C 34.757812 30.832031 36.082031 29.507812 36.082031 27.871094 L 36.082031 10.191406 C 36.082031 8.558594 34.757812 7.234375 33.121094 7.234375 L 5.976562 7.234375 C 4.339844 7.234375 3.015625 8.558594 3.015625 10.191406 Z M 3.015625 10.191406 " clip-rule="nonzero"/></clipPath><clipPath id="8fedcc2ecb"><path d="M 6.863281 8.121094 L 32.234375 8.121094 C 33.867188 8.121094 35.191406 9.445312 35.191406 11.082031 L 35.191406 26.984375 C 35.191406 28.621094 33.867188 29.945312 32.234375 29.945312 L 6.863281 29.945312 C 5.230469 29.945312 3.902344 28.621094 3.902344 26.984375 L 3.902344 11.082031 C 3.902344 9.445312 5.230469 8.121094 6.863281 8.121094 Z M 6.863281 8.121094 " clip-rule="nonzero"/></clipPath><clipPath id="1c89a9b04b"><path d="M 3.015625 7.234375 L 36.316406 7.234375 L 36.316406 30.90625 L 3.015625 30.90625 Z M 3.015625 7.234375 " clip-rule="nonzero"/></clipPath><clipPath id="0b95249843"><path d="M 3.015625 10.191406 L 3.015625 27.871094 C 3.015625 29.507812 4.339844 30.832031 5.976562 30.832031 L 33.121094 30.832031 C 34.757812 30.832031 36.082031 29.507812 36.082031 27.871094 L 36.082031 10.191406 C 36.082031 8.558594 34.757812 7.234375 33.121094 7.234375 L 5.976562 7.234375 C 4.339844 7.234375 3.015625 8.558594 3.015625 10.191406 Z M 3.015625 10.191406 " clip-rule="nonzero"/></clipPath><clipPath id="931b97751b"><path d="M 3.015625 10.191406 L 3.015625 27.863281 C 3.015625 29.5 4.339844 30.824219 5.976562 30.824219 L 33.117188 30.824219 C 34.753906 30.824219 36.078125 29.5 36.078125 27.863281 L 36.078125 10.191406 C 36.078125 8.558594 34.753906 7.234375 33.117188 7.234375 L 5.976562 7.234375 C 4.339844 7.234375 3.015625 8.558594 3.015625 10.191406 Z M 3.015625 10.191406 " clip-rule="nonzero"/></clipPath><clipPath id="e876d1c4d5"><path d="M 0.925781 6.171875 L 34.230469 6.171875 L 34.230469 29.855469 L 0.925781 29.855469 Z M 0.925781 6.171875 " clip-rule="nonzero"/></clipPath></defs><g clip-path="url(#92589f6dcd)"><g clip-path="url(#ab4937ae51)"><g clip-path="url(#8fedcc2ecb)"><path fill="#3385d7" d="M 32.523438 7.234375 L 6.570312 7.234375 C 6.101562 7.234375 5.652344 7.324219 5.21875 7.5 C 4.785156 7.679688 4.402344 7.9375 4.070312 8.269531 C 3.738281 8.601562 3.480469 8.984375 3.300781 9.417969 C 3.121094 9.851562 3.03125 10.300781 3.03125 10.769531 L 3.03125 27.285156 C 3.03125 27.753906 3.121094 28.207031 3.300781 28.640625 C 3.480469 29.074219 3.738281 29.457031 4.070312 29.789062 C 4.402344 30.121094 4.785156 30.375 5.21875 30.554688 C 5.652344 30.734375 6.101562 30.824219 6.570312 30.824219 L 32.523438 30.824219 C 32.992188 30.824219 33.441406 30.734375 33.875 30.554688 C 34.308594 30.375 34.691406 30.121094 35.023438 29.789062 C 35.355469 29.457031 35.613281 29.074219 35.792969 28.640625 C 35.972656 28.207031 36.0625 27.753906 36.0625 27.285156 L 36.0625 10.769531 C 36.0625 10.300781 35.972656 9.851562 35.792969 9.417969 C 35.613281 8.984375 35.355469 8.601562 35.023438 8.269531 C 34.691406 7.9375 34.308594 7.679688 33.875 7.5 C 33.441406 7.324219 32.992188 7.234375 32.523438 7.234375 Z M 6.570312 9.589844 L 32.523438 9.589844 C 32.75 9.59375 32.960938 9.65625 33.152344 9.78125 C 33.34375 9.90625 33.488281 10.070312 33.582031 10.28125 L 21.703125 19.421875 C 21.394531 19.65625 21.054688 19.839844 20.6875 19.964844 C 20.316406 20.089844 19.9375 20.152344 19.546875 20.152344 C 19.15625 20.152344 18.777344 20.089844 18.40625 19.964844 C 18.039062 19.839844 17.699219 19.65625 17.390625 19.421875 L 5.507812 10.28125 C 5.605469 10.070312 5.75 9.90625 5.941406 9.78125 C 6.132812 9.65625 6.34375 9.59375 6.570312 9.589844 Z M 32.523438 28.464844 L 6.570312 28.464844 C 6.414062 28.464844 6.265625 28.433594 6.121094 28.375 C 5.976562 28.316406 5.847656 28.230469 5.738281 28.121094 C 5.625 28.007812 5.542969 27.882812 5.480469 27.738281 C 5.421875 27.59375 5.390625 27.441406 5.390625 27.285156 L 5.390625 13.167969 L 15.949219 21.289062 C 16.464844 21.6875 17.03125 21.988281 17.648438 22.199219 C 18.265625 22.40625 18.898438 22.511719 19.546875 22.511719 C 20.199219 22.511719 20.832031 22.40625 21.449219 22.199219 C 22.0625 21.988281 22.628906 21.6875 23.144531 21.289062 L 33.703125 13.167969 L 33.703125 27.285156 C 33.703125 27.441406 33.671875 27.59375 33.613281 27.738281 C 33.550781 27.882812 33.46875 28.007812 33.355469 28.121094 C 33.246094 28.230469 33.117188 28.316406 32.972656 28.375 C 32.828125 28.433594 32.679688 28.464844 32.523438 28.464844 Z M 32.523438 28.464844 " fill-opacity="1" fill-rule="nonzero"/></g></g></g><g clip-path="url(#1c89a9b04b)"><g clip-path="url(#0b95249843)"><g clip-path="url(#931b97751b)"><path stroke-linecap="butt" transform="matrix(0.740132, 0, 0, 0.740132, 3.015291, 7.23248)" fill="none" stroke-linejoin="miter" d="M 0.000451439 3.997838 L 0.000451439 27.874505 C 0.000451439 30.085894 1.789618 31.87506 4.001007 31.87506 L 40.67101 31.87506 C 42.882399 31.87506 44.671566 30.085894 44.671566 27.874505 L 44.671566 3.997838 C 44.671566 1.791727 42.882399 0.00256031 40.67101 0.00256031 L 4.001007 0.00256031 C 1.789618 0.00256031 0.000451439 1.791727 0.000451439 3.997838 Z M 0.000451439 3.997838 " stroke="#3385d7" stroke-width="4" stroke-opacity="1" stroke-miterlimit="4"/></g></g></g><g clip-path="url(#e876d1c4d5)"><path fill="#ff914d" d="M 30.648438 6.171875 L 4.507812 6.171875 C 4.035156 6.171875 3.578125 6.261719 3.144531 6.445312 C 2.707031 6.625 2.320312 6.882812 1.988281 7.21875 C 1.652344 7.550781 1.394531 7.9375 1.214844 8.375 C 1.03125 8.808594 0.941406 9.265625 0.941406 9.738281 L 0.941406 26.375 C 0.941406 26.847656 1.03125 27.300781 1.214844 27.738281 C 1.394531 28.175781 1.652344 28.558594 1.988281 28.894531 C 2.320312 29.226562 2.707031 29.484375 3.144531 29.667969 C 3.578125 29.847656 4.035156 29.9375 4.507812 29.9375 L 30.648438 29.9375 C 31.121094 29.9375 31.578125 29.847656 32.011719 29.667969 C 32.449219 29.484375 32.835938 29.226562 33.167969 28.894531 C 33.503906 28.558594 33.761719 28.175781 33.941406 27.738281 C 34.125 27.300781 34.214844 26.847656 34.214844 26.375 L 34.214844 9.738281 C 34.214844 9.265625 34.125 8.808594 33.941406 8.375 C 33.761719 7.9375 33.503906 7.550781 33.167969 7.21875 C 32.835938 6.882812 32.449219 6.625 32.011719 6.445312 C 31.578125 6.261719 31.121094 6.171875 30.648438 6.171875 Z M 4.507812 8.550781 L 30.648438 8.550781 C 30.878906 8.550781 31.089844 8.617188 31.285156 8.742188 C 31.476562 8.867188 31.621094 9.03125 31.71875 9.242188 L 19.75 18.449219 C 19.441406 18.691406 19.097656 18.871094 18.726562 19 C 18.355469 19.125 17.972656 19.1875 17.578125 19.1875 C 17.183594 19.1875 16.800781 19.125 16.429688 19 C 16.058594 18.871094 15.714844 18.691406 15.40625 18.449219 L 3.4375 9.242188 C 3.535156 9.03125 3.679688 8.867188 3.871094 8.742188 C 4.066406 8.617188 4.277344 8.550781 4.507812 8.550781 Z M 30.648438 27.5625 L 4.507812 27.5625 C 4.351562 27.5625 4.199219 27.53125 4.050781 27.472656 C 3.90625 27.410156 3.777344 27.324219 3.667969 27.214844 C 3.554688 27.101562 3.46875 26.972656 3.410156 26.828125 C 3.347656 26.683594 3.320312 26.53125 3.320312 26.375 L 3.320312 12.152344 L 13.957031 20.332031 C 14.476562 20.734375 15.046875 21.039062 15.664062 21.25 C 16.285156 21.457031 16.925781 21.5625 17.578125 21.5625 C 18.234375 21.5625 18.871094 21.457031 19.492188 21.25 C 20.113281 21.039062 20.683594 20.734375 21.203125 20.332031 L 31.835938 12.152344 L 31.835938 26.375 C 31.835938 26.53125 31.808594 26.683594 31.746094 26.828125 C 31.6875 26.972656 31.601562 27.101562 31.488281 27.214844 C 31.378906 27.324219 31.25 27.410156 31.105469 27.472656 C 30.957031 27.53125 30.804688 27.5625 30.648438 27.5625 Z M 30.648438 27.5625 " fill-opacity="1" fill-rule="nonzero"/></g></svg>