<svg xmlns="http://www.w3.org/2000/svg" xmlns:xlink="http://www.w3.org/1999/xlink" width="56" zoomAndPan="magnify" viewBox="0 0 42 42" height="56" preserveAspectRatio="xMidYMid meet" version="1.0"><defs><clipPath id="4b38e30e6c"><path d="M 5.109375 9.152344 L 38.808594 9.152344 L 38.808594 33.328125 L 5.109375 33.328125 Z M 5.109375 9.152344 " clip-rule="nonzero"/></clipPath><clipPath id="06cae1d407"><path d="M 3.003906 7.6875 L 36.703125 7.6875 L 36.703125 31.859375 L 3.003906 31.859375 Z M 3.003906 7.6875 " clip-rule="nonzero"/></clipPath></defs><g clip-path="url(#4b38e30e6c)"><path fill="#3385d7" d="M 35.347656 9.152344 L 8.753906 9.152344 C 8.273438 9.152344 7.8125 9.242188 7.367188 9.429688 C 6.921875 9.613281 6.53125 9.875 6.191406 10.214844 C 5.851562 10.554688 5.589844 10.945312 5.40625 11.390625 C 5.21875 11.835938 5.128906 12.296875 5.128906 12.777344 L 5.128906 29.699219 C 5.128906 30.179688 5.21875 30.644531 5.40625 31.085938 C 5.589844 31.53125 5.851562 31.925781 6.191406 32.265625 C 6.53125 32.605469 6.921875 32.867188 7.367188 33.050781 C 7.8125 33.234375 8.273438 33.328125 8.753906 33.328125 L 35.347656 33.328125 C 35.828125 33.328125 36.289062 33.234375 36.734375 33.050781 C 37.179688 32.867188 37.570312 32.605469 37.910156 32.265625 C 38.25 31.925781 38.511719 31.53125 38.695312 31.085938 C 38.878906 30.644531 38.972656 30.179688 38.972656 29.699219 L 38.972656 12.777344 C 38.972656 12.296875 38.878906 11.835938 38.695312 11.390625 C 38.511719 10.945312 38.25 10.554688 37.910156 10.214844 C 37.570312 9.875 37.179688 9.613281 36.734375 9.429688 C 36.289062 9.242188 35.828125 9.152344 35.347656 9.152344 Z M 8.753906 11.570312 L 35.347656 11.570312 C 35.582031 11.570312 35.796875 11.636719 35.992188 11.761719 C 36.191406 11.890625 36.335938 12.0625 36.433594 12.273438 L 24.261719 21.640625 C 23.945312 21.882812 23.597656 22.070312 23.21875 22.199219 C 22.839844 22.328125 22.449219 22.390625 22.050781 22.390625 C 21.652344 22.390625 21.261719 22.328125 20.882812 22.199219 C 20.503906 22.070312 20.15625 21.882812 19.839844 21.640625 L 7.667969 12.273438 C 7.765625 12.0625 7.910156 11.890625 8.109375 11.761719 C 8.304688 11.636719 8.519531 11.570312 8.753906 11.570312 Z M 35.347656 30.910156 L 8.753906 30.910156 C 8.59375 30.910156 8.441406 30.878906 8.292969 30.816406 C 8.144531 30.753906 8.011719 30.667969 7.898438 30.554688 C 7.785156 30.441406 7.699219 30.3125 7.636719 30.164062 C 7.578125 30.015625 7.546875 29.859375 7.546875 29.699219 L 7.546875 15.234375 L 18.367188 23.554688 C 18.894531 23.960938 19.472656 24.273438 20.105469 24.488281 C 20.738281 24.699219 21.386719 24.808594 22.050781 24.808594 C 22.71875 24.808594 23.367188 24.699219 24 24.488281 C 24.628906 24.273438 25.210938 23.960938 25.738281 23.554688 L 36.554688 15.234375 L 36.554688 29.699219 C 36.554688 29.859375 36.523438 30.015625 36.464844 30.164062 C 36.402344 30.3125 36.316406 30.441406 36.203125 30.554688 C 36.089844 30.667969 35.957031 30.753906 35.808594 30.816406 C 35.660156 30.878906 35.507812 30.910156 35.347656 30.910156 Z M 35.347656 30.910156 " fill-opacity="1" fill-rule="nonzero"/></g><g clip-path="url(#06cae1d407)"><path fill="#ff914d" d="M 33.242188 7.6875 L 6.648438 7.6875 C 6.167969 7.6875 5.707031 7.777344 5.261719 7.960938 C 4.816406 8.148438 4.425781 8.410156 4.085938 8.75 C 3.746094 9.089844 3.484375 9.480469 3.300781 9.925781 C 3.117188 10.371094 3.023438 10.832031 3.023438 11.3125 L 3.023438 28.234375 C 3.023438 28.714844 3.117188 29.179688 3.300781 29.621094 C 3.484375 30.066406 3.746094 30.460938 4.085938 30.800781 C 4.425781 31.140625 4.816406 31.402344 5.261719 31.585938 C 5.707031 31.769531 6.167969 31.859375 6.648438 31.859375 L 33.242188 31.859375 C 33.722656 31.859375 34.183594 31.769531 34.628906 31.585938 C 35.074219 31.402344 35.464844 31.140625 35.804688 30.800781 C 36.144531 30.460938 36.40625 30.066406 36.59375 29.621094 C 36.777344 29.179688 36.867188 28.714844 36.867188 28.234375 L 36.867188 11.3125 C 36.867188 10.832031 36.777344 10.371094 36.59375 9.925781 C 36.40625 9.480469 36.144531 9.089844 35.804688 8.75 C 35.464844 8.410156 35.074219 8.148438 34.628906 7.960938 C 34.183594 7.777344 33.722656 7.6875 33.242188 7.6875 Z M 6.648438 10.105469 L 33.242188 10.105469 C 33.476562 10.105469 33.691406 10.171875 33.886719 10.296875 C 34.085938 10.425781 34.230469 10.597656 34.328125 10.808594 L 22.15625 20.175781 C 21.839844 20.417969 21.492188 20.605469 21.113281 20.734375 C 20.734375 20.863281 20.347656 20.925781 19.945312 20.925781 C 19.546875 20.925781 19.15625 20.863281 18.777344 20.734375 C 18.398438 20.605469 18.050781 20.417969 17.734375 20.175781 L 5.5625 10.808594 C 5.660156 10.597656 5.808594 10.425781 6.003906 10.296875 C 6.199219 10.171875 6.414062 10.105469 6.648438 10.105469 Z M 33.242188 29.445312 L 6.648438 29.445312 C 6.488281 29.445312 6.335938 29.414062 6.1875 29.351562 C 6.039062 29.289062 5.910156 29.203125 5.796875 29.089844 C 5.683594 28.976562 5.59375 28.84375 5.535156 28.699219 C 5.472656 28.550781 5.441406 28.394531 5.441406 28.234375 L 5.441406 13.769531 L 16.261719 22.089844 C 16.789062 22.496094 17.371094 22.808594 18 23.019531 C 18.632812 23.234375 19.28125 23.34375 19.949219 23.34375 C 20.613281 23.34375 21.261719 23.234375 21.894531 23.019531 C 22.523438 22.808594 23.105469 22.496094 23.632812 22.089844 L 34.449219 13.769531 L 34.449219 28.234375 C 34.449219 28.394531 34.421875 28.550781 34.359375 28.699219 C 34.296875 28.84375 34.210938 28.976562 34.097656 29.089844 C 33.984375 29.203125 33.851562 29.289062 33.703125 29.351562 C 33.554688 29.414062 33.402344 29.445312 33.242188 29.445312 Z M 33.242188 29.445312 " fill-opacity="1" fill-rule="nonzero"/></g></svg>