<svg xmlns="http://www.w3.org/2000/svg" xmlns:xlink="http://www.w3.org/1999/xlink" width="56" zoomAndPan="magnify" viewBox="0 0 42 42" height="56" preserveAspectRatio="xMidYMid meet" version="1.0"><defs><g/></defs><g fill="#3385d7" fill-opacity="1"><g transform="translate(10.885825, 33.644812)"><g><path d="M 3.546875 0 L 3.546875 -15.515625 L 0.203125 -15.515625 L 0.203125 -20.25 L 3.546875 -20.25 L 3.546875 -23.546875 C 3.546875 -25.148438 3.816406 -26.398438 4.359375 -27.296875 C 4.910156 -28.203125 5.753906 -28.832031 6.890625 -29.1875 C 8.035156 -29.539062 9.519531 -29.71875 11.34375 -29.71875 L 14.15625 -29.71875 L 14.15625 -24.8125 L 12.453125 -24.8125 C 11.359375 -24.8125 10.632812 -24.703125 10.28125 -24.484375 C 9.925781 -24.265625 9.75 -23.765625 9.75 -22.984375 L 9.75 -20.25 L 14.15625 -20.25 L 14.15625 -15.515625 L 9.75 -15.515625 L 9.75 0 Z M 3.546875 0 "/></g></g></g><g fill="#3385d7" fill-opacity="1"><g transform="translate(15.844064, 33.644812)"><g><path d="M 3.546875 0 L 3.546875 -15.515625 L 0.203125 -15.515625 L 0.203125 -20.25 L 3.546875 -20.25 L 3.546875 -23.546875 C 3.546875 -25.148438 3.816406 -26.398438 4.359375 -27.296875 C 4.910156 -28.203125 5.753906 -28.832031 6.890625 -29.1875 C 8.035156 -29.539062 9.519531 -29.71875 11.34375 -29.71875 L 14.15625 -29.71875 L 14.15625 -24.8125 L 12.453125 -24.8125 C 11.359375 -24.8125 10.632812 -24.703125 10.28125 -24.484375 C 9.925781 -24.265625 9.75 -23.765625 9.75 -22.984375 L 9.75 -20.25 L 14.15625 -20.25 L 14.15625 -15.515625 L 9.75 -15.515625 L 9.75 0 Z M 3.546875 0 "/></g></g></g><g fill="#ff914d" fill-opacity="1"><g transform="translate(12.922358, 35.834961)"><g><path d="M 3.890625 0 L 3.890625 -16.984375 L 0.21875 -16.984375 L 0.21875 -22.171875 L 3.890625 -22.171875 L 3.890625 -25.796875 C 3.890625 -27.554688 4.1875 -28.925781 4.78125 -29.90625 C 5.375 -30.882812 6.296875 -31.566406 7.546875 -31.953125 C 8.804688 -32.347656 10.429688 -32.546875 12.421875 -32.546875 L 15.515625 -32.546875 L 15.515625 -27.171875 L 13.640625 -27.171875 C 12.441406 -27.171875 11.648438 -27.050781 11.265625 -26.8125 C 10.878906 -26.582031 10.6875 -26.035156 10.6875 -25.171875 L 10.6875 -22.171875 L 15.515625 -22.171875 L 15.515625 -16.984375 L 10.6875 -16.984375 L 10.6875 0 Z M 3.890625 0 "/></g></g></g></svg>