<?xml version="1.0" encoding="UTF-8"?>
<svg xmlns="http://www.w3.org/2000/svg" xmlns:xlink="http://www.w3.org/1999/xlink" width="50px" height="50px" viewBox="0 0 50 50" version="1.1">
<g id="surface1">
<path style=" stroke:none;fill-rule:nonzero;fill:rgb(20%,52.156863%,84.313725%);fill-opacity:1;" d="M 17.121094 43.328125 L 17.121094 23.015625 L 12.734375 23.015625 L 12.734375 16.8125 L 17.121094 16.8125 L 17.121094 12.484375 C 17.121094 10.382812 17.476562 8.742188 18.1875 7.570312 C 18.902344 6.390625 20.007812 5.574219 21.507812 5.109375 C 23.003906 4.644531 24.945312 4.414062 27.328125 4.414062 L 31.023438 4.414062 L 31.023438 10.824219 L 28.777344 10.824219 C 27.351562 10.824219 26.402344 10.96875 25.9375 11.257812 C 25.476562 11.542969 25.246094 12.199219 25.246094 13.230469 L 25.246094 16.8125 L 31.023438 16.8125 L 31.023438 23.015625 L 25.246094 23.015625 L 25.246094 43.328125 Z M 17.121094 43.328125 "/>
<path style=" stroke:none;fill-rule:nonzero;fill:rgb(93.333333%,54.901961%,24.705882%);fill-opacity:1;" d="M 21.121094 45.515625 L 21.121094 25.203125 L 16.734375 25.203125 L 16.734375 19 L 21.121094 19 L 21.121094 14.671875 C 21.121094 12.570312 21.476562 10.929688 22.1875 9.757812 C 22.902344 8.578125 24.007812 7.761719 25.507812 7.296875 C 27.003906 6.832031 28.945312 6.601562 31.328125 6.601562 L 35.023438 6.601562 L 35.023438 13.011719 L 32.777344 13.011719 C 31.351562 13.011719 30.402344 13.15625 29.9375 13.445312 C 29.476562 13.730469 29.246094 14.386719 29.246094 15.417969 L 29.246094 19 L 35.023438 19 L 35.023438 25.203125 L 29.246094 25.203125 L 29.246094 45.515625 Z M 21.121094 45.515625 "/>
</g>
</svg>
