<svg xmlns="http://www.w3.org/2000/svg" xmlns:xlink="http://www.w3.org/1999/xlink" width="50" zoomAndPan="magnify" viewBox="0 0 37.5 37.499999" height="50" preserveAspectRatio="xMidYMid meet" version="1.0"><defs><g/></defs><g fill="#3385d7" fill-opacity="1"><g transform="translate(15.964691, 24.82895)"><g><path d="M 2.390625 0 L 2.390625 -10.46875 L 0.140625 -10.46875 L 0.140625 -13.65625 L 2.390625 -13.65625 L 2.390625 -15.890625 C 2.390625 -16.972656 2.570312 -17.816406 2.9375 -18.421875 C 3.3125 -19.023438 3.882812 -19.445312 4.65625 -19.6875 C 5.425781 -19.925781 6.425781 -20.046875 7.65625 -20.046875 L 9.546875 -20.046875 L 9.546875 -16.734375 L 8.390625 -16.734375 C 7.660156 -16.734375 7.175781 -16.660156 6.9375 -16.515625 C 6.695312 -16.367188 6.578125 -16.03125 6.578125 -15.5 L 6.578125 -13.65625 L 9.546875 -13.65625 L 9.546875 -10.46875 L 6.578125 -10.46875 L 6.578125 0 Z M 2.390625 0 "/></g></g></g><g fill="#ff914d" fill-opacity="1"><g transform="translate(11.225457, 29.18724)"><g><path d="M 2.625 0 L 2.625 -11.46875 L 0.15625 -11.46875 L 0.15625 -14.96875 L 2.625 -14.96875 L 2.625 -17.40625 C 2.625 -18.59375 2.820312 -19.519531 3.21875 -20.1875 C 3.625 -20.851562 4.25 -21.316406 5.09375 -21.578125 C 5.9375 -21.835938 7.035156 -21.96875 8.390625 -21.96875 L 10.46875 -21.96875 L 10.46875 -18.34375 L 9.203125 -18.34375 C 8.398438 -18.34375 7.867188 -18.257812 7.609375 -18.09375 C 7.347656 -17.9375 7.21875 -17.566406 7.21875 -16.984375 L 7.21875 -14.96875 L 10.46875 -14.96875 L 10.46875 -11.46875 L 7.21875 -11.46875 L 7.21875 0 Z M 2.625 0 "/></g></g></g></svg>