<svg xmlns="http://www.w3.org/2000/svg" xmlns:xlink="http://www.w3.org/1999/xlink" width="50" zoomAndPan="magnify" viewBox="0 0 37.5 37.499999" height="50" preserveAspectRatio="xMidYMid meet" version="1.0"><defs><clipPath id="5f62d97f93"><path d="M 2.960938 3.699219 L 31.628906 3.699219 L 31.628906 32.566406 L 2.960938 32.566406 Z M 2.960938 3.699219 " clip-rule="nonzero"/></clipPath><clipPath id="748c4a7fa1"><path d="M 10.363281 3.699219 L 24.101562 3.699219 C 26.0625 3.699219 27.945312 4.480469 29.332031 5.867188 C 30.722656 7.253906 31.5 9.136719 31.5 11.097656 L 31.5 25.304688 C 31.5 27.269531 30.722656 29.148438 29.332031 30.539062 C 27.945312 31.925781 26.0625 32.703125 24.101562 32.703125 L 10.363281 32.703125 C 8.398438 32.703125 6.515625 31.925781 5.128906 30.539062 C 3.742188 29.148438 2.960938 27.269531 2.960938 25.304688 L 2.960938 11.097656 C 2.960938 9.136719 3.742188 7.253906 5.128906 5.867188 C 6.515625 4.480469 8.398438 3.699219 10.363281 3.699219 Z M 10.363281 3.699219 " clip-rule="nonzero"/></clipPath><clipPath id="e7220091c2"><path d="M 6.304688 5.785156 L 33.476562 5.785156 L 33.476562 33.171875 L 6.304688 33.171875 Z M 6.304688 5.785156 " clip-rule="nonzero"/></clipPath><clipPath id="9c3e40d095"><path d="M 11.480469 5.785156 L 28.246094 5.785156 C 29.617188 5.785156 30.9375 6.332031 31.90625 7.304688 C 32.878906 8.273438 33.425781 9.59375 33.425781 10.964844 L 33.425781 28.328125 C 33.425781 29.703125 32.878906 31.019531 31.90625 31.992188 C 30.9375 32.960938 29.617188 33.507812 28.246094 33.507812 L 11.480469 33.507812 C 10.109375 33.507812 8.792969 32.960938 7.820312 31.992188 C 6.847656 31.019531 6.304688 29.703125 6.304688 28.328125 L 6.304688 10.964844 C 6.304688 9.59375 6.847656 8.273438 7.820312 7.304688 C 8.792969 6.332031 10.109375 5.785156 11.480469 5.785156 Z M 11.480469 5.785156 " clip-rule="nonzero"/></clipPath><clipPath id="ac4d389334"><path d="M 25.335938 10.355469 L 28.980469 10.355469 L 28.980469 13.996094 L 25.335938 13.996094 Z M 25.335938 10.355469 " clip-rule="nonzero"/></clipPath><clipPath id="02afefe7f6"><path d="M 27.15625 10.355469 C 26.152344 10.355469 25.335938 11.167969 25.335938 12.175781 C 25.335938 13.183594 26.152344 13.996094 27.15625 13.996094 C 28.164062 13.996094 28.980469 13.183594 28.980469 12.175781 C 28.980469 11.167969 28.164062 10.355469 27.15625 10.355469 Z M 27.15625 10.355469 " clip-rule="nonzero"/></clipPath><clipPath id="ba0b857734"><path d="M 11.574219 11.878906 L 24.445312 11.878906 L 24.445312 24.75 L 11.574219 24.75 Z M 11.574219 11.878906 " clip-rule="nonzero"/></clipPath><clipPath id="2e1149ec5e"><path d="M 18.011719 11.878906 C 14.457031 11.878906 11.574219 14.761719 11.574219 18.316406 C 11.574219 21.871094 14.457031 24.75 18.011719 24.75 C 21.566406 24.75 24.445312 21.871094 24.445312 18.316406 C 24.445312 14.761719 21.566406 11.878906 18.011719 11.878906 Z M 18.011719 11.878906 " clip-rule="nonzero"/></clipPath><clipPath id="21fec77c61"><path d="M 13.664062 13.320312 L 26.566406 13.320312 L 26.566406 26.222656 L 13.664062 26.222656 Z M 13.664062 13.320312 " clip-rule="nonzero"/></clipPath><clipPath id="4a3d6eedb9"><path d="M 20.113281 13.320312 C 16.550781 13.320312 13.664062 16.207031 13.664062 19.769531 C 13.664062 23.332031 16.550781 26.222656 20.113281 26.222656 C 23.675781 26.222656 26.566406 23.332031 26.566406 19.769531 C 26.566406 16.207031 23.675781 13.320312 20.113281 13.320312 Z M 20.113281 13.320312 " clip-rule="nonzero"/></clipPath></defs><g clip-path="url(#5f62d97f93)"><g clip-path="url(#748c4a7fa1)"><path stroke-linecap="butt" transform="matrix(0.740132, 0, 0, 0.740132, 2.962626, 3.700658)" fill="none" stroke-linejoin="miter" d="M 9.999108 -0.0019441 L 28.561054 -0.0019441 C 31.210499 -0.0019441 33.754388 1.053612 35.627999 2.927223 C 37.506888 4.800834 38.557166 7.344723 38.557166 9.994168 L 38.557166 29.189447 C 38.557166 31.844169 37.506888 34.38278 35.627999 36.261669 C 33.754388 38.135281 31.210499 39.185559 28.561054 39.185559 L 9.999108 39.185559 C 7.344386 39.185559 4.800497 38.135281 2.926886 36.261669 C 1.053274 34.38278 -0.00228113 31.844169 -0.00228113 29.189447 L -0.00228113 9.994168 C -0.00228113 7.344723 1.053274 4.800834 2.926886 2.927223 C 4.800497 1.053612 7.344386 -0.0019441 9.999108 -0.0019441 Z M 9.999108 -0.0019441 " stroke="#3385d7" stroke-width="10" stroke-opacity="1" stroke-miterlimit="4"/></g></g><g clip-path="url(#e7220091c2)"><g clip-path="url(#9c3e40d095)"><path stroke-linecap="butt" transform="matrix(0.740132, 0, 0, 0.740132, 6.303261, 5.786943)" fill="none" stroke-linejoin="miter" d="M 6.994984 -0.00241442 L 29.647207 -0.00241442 C 31.499707 -0.00241442 33.283596 0.736475 34.592485 2.050641 C 35.906652 3.35953 36.645541 5.143419 36.645541 6.995919 L 36.645541 30.455643 C 36.645541 32.313421 35.906652 34.092032 34.592485 35.406199 C 33.283596 36.715088 31.499707 37.453977 29.647207 37.453977 L 6.994984 37.453977 C 5.142483 37.453977 3.363872 36.715088 2.049705 35.406199 C 0.735539 34.092032 0.00192748 32.313421 0.00192748 30.455643 L 0.00192748 6.995919 C 0.00192748 5.143419 0.735539 3.35953 2.049705 2.050641 C 3.363872 0.736475 5.142483 -0.00241442 6.994984 -0.00241442 Z M 6.994984 -0.00241442 " stroke="#ff914d" stroke-width="10" stroke-opacity="1" stroke-miterlimit="4"/></g></g><g clip-path="url(#ac4d389334)"><g clip-path="url(#02afefe7f6)"><path fill="#ff914d" d="M 25.335938 10.355469 L 28.980469 10.355469 L 28.980469 13.996094 L 25.335938 13.996094 Z M 25.335938 10.355469 " fill-opacity="1" fill-rule="nonzero"/></g></g><g clip-path="url(#ba0b857734)"><g clip-path="url(#2e1149ec5e)"><path fill="#3385d7" d="M 11.574219 11.878906 L 24.445312 11.878906 L 24.445312 24.75 L 11.574219 24.75 Z M 11.574219 11.878906 " fill-opacity="1" fill-rule="nonzero"/></g></g><g clip-path="url(#21fec77c61)"><g clip-path="url(#4a3d6eedb9)"><path fill="#ff914d" d="M 13.664062 13.320312 L 26.566406 13.320312 L 26.566406 26.222656 L 13.664062 26.222656 Z M 13.664062 13.320312 " fill-opacity="1" fill-rule="nonzero"/></g></g></svg>