<svg xmlns="http://www.w3.org/2000/svg" xmlns:xlink="http://www.w3.org/1999/xlink" width="56" zoomAndPan="magnify" viewBox="0 0 42 42" height="56" preserveAspectRatio="xMidYMid meet" version="1.0"><defs><clipPath id="d03aa0e874"><path d="M 5.472656 3.378906 L 38.347656 3.378906 L 38.347656 37 L 5.472656 37 Z M 5.472656 3.378906 " clip-rule="nonzero"/></clipPath><clipPath id="218e117d98"><path d="M 11.332031 3.378906 L 32.425781 3.378906 C 35.660156 3.378906 38.285156 6 38.285156 9.238281 L 38.285156 31.054688 C 38.285156 34.292969 35.660156 36.914062 32.425781 36.914062 L 11.332031 36.914062 C 8.09375 36.914062 5.472656 34.292969 5.472656 31.054688 L 5.472656 9.238281 C 5.472656 6 8.09375 3.378906 11.332031 3.378906 Z M 11.332031 3.378906 " clip-rule="nonzero"/></clipPath><clipPath id="3d90c2a570"><path d="M 3.371094 3.378906 L 36.25 3.378906 L 36.25 37 L 3.371094 37 Z M 3.371094 3.378906 " clip-rule="nonzero"/></clipPath><clipPath id="654d614482"><path d="M 9.230469 3.378906 L 30.324219 3.378906 C 33.5625 3.378906 36.183594 6 36.183594 9.238281 L 36.183594 31.054688 C 36.183594 34.292969 33.5625 36.914062 30.324219 36.914062 L 9.230469 36.914062 C 5.996094 36.914062 3.371094 34.292969 3.371094 31.054688 L 3.371094 9.238281 C 3.371094 6 5.996094 3.378906 9.230469 3.378906 Z M 9.230469 3.378906 " clip-rule="nonzero"/></clipPath><clipPath id="426747c53a"><path d="M 4.59375 3.378906 L 37.46875 3.378906 L 37.46875 37 L 4.59375 37 Z M 4.59375 3.378906 " clip-rule="nonzero"/></clipPath><clipPath id="567909112f"><path d="M 10.453125 3.378906 L 31.546875 3.378906 C 34.78125 3.378906 37.40625 6 37.40625 9.238281 L 37.40625 31.054688 C 37.40625 34.292969 34.78125 36.914062 31.546875 36.914062 L 10.453125 36.914062 C 7.214844 36.914062 4.59375 34.292969 4.59375 31.054688 L 4.59375 9.238281 C 4.59375 6 7.214844 3.378906 10.453125 3.378906 Z M 10.453125 3.378906 " clip-rule="nonzero"/></clipPath><clipPath id="a1e5ae6e95"><path d="M 28.949219 8.273438 L 33.175781 8.273438 L 33.175781 12.5 L 28.949219 12.5 Z M 28.949219 8.273438 " clip-rule="nonzero"/></clipPath><clipPath id="ec84e04235"><path d="M 31.0625 8.273438 C 29.894531 8.273438 28.949219 9.21875 28.949219 10.386719 C 28.949219 11.554688 29.894531 12.5 31.0625 12.5 C 32.230469 12.5 33.175781 11.554688 33.175781 10.386719 C 33.175781 9.21875 32.230469 8.273438 31.0625 8.273438 Z M 31.0625 8.273438 " clip-rule="nonzero"/></clipPath><clipPath id="0cb1145d6d"><path d="M 12.449219 11.210938 L 27.109375 11.210938 L 27.109375 25.875 L 12.449219 25.875 Z M 12.449219 11.210938 " clip-rule="nonzero"/></clipPath><clipPath id="7bacbd9b23"><path d="M 19.78125 11.210938 C 15.730469 11.210938 12.449219 14.496094 12.449219 18.542969 C 12.449219 22.589844 15.730469 25.875 19.78125 25.875 C 23.828125 25.875 27.109375 22.589844 27.109375 18.542969 C 27.109375 14.496094 23.828125 11.210938 19.78125 11.210938 Z M 19.78125 11.210938 " clip-rule="nonzero"/></clipPath><clipPath id="dae6a2dc02"><path d="M 14.550781 14.253906 L 29.210938 14.253906 L 29.210938 28.914062 L 14.550781 28.914062 Z M 14.550781 14.253906 " clip-rule="nonzero"/></clipPath><clipPath id="a680d6f09f"><path d="M 21.878906 14.253906 C 17.832031 14.253906 14.550781 17.535156 14.550781 21.585938 C 14.550781 25.632812 17.832031 28.914062 21.878906 28.914062 C 25.929688 28.914062 29.210938 25.632812 29.210938 21.585938 C 29.210938 17.535156 25.929688 14.253906 21.878906 14.253906 Z M 21.878906 14.253906 " clip-rule="nonzero"/></clipPath><clipPath id="b124da0c83"><path d="M 12.84375 11.992188 L 29.15625 11.992188 L 29.15625 28.304688 L 12.84375 28.304688 Z M 12.84375 11.992188 " clip-rule="nonzero"/></clipPath><clipPath id="5e4efa2417"><path d="M 21 11.992188 C 16.496094 11.992188 12.84375 15.644531 12.84375 20.148438 C 12.84375 24.652344 16.496094 28.304688 21 28.304688 C 25.503906 28.304688 29.15625 24.652344 29.15625 20.148438 C 29.15625 15.644531 25.503906 11.992188 21 11.992188 Z M 21 11.992188 " clip-rule="nonzero"/></clipPath><clipPath id="744dc200e3"><path d="M 13.667969 12.820312 L 28.332031 12.820312 L 28.332031 27.480469 L 13.667969 27.480469 Z M 13.667969 12.820312 " clip-rule="nonzero"/></clipPath><clipPath id="f3a03ac348"><path d="M 21 12.820312 C 16.953125 12.820312 13.667969 16.101562 13.667969 20.148438 C 13.667969 24.199219 16.953125 27.480469 21 27.480469 C 25.046875 27.480469 28.332031 24.199219 28.332031 20.148438 C 28.332031 16.101562 25.046875 12.820312 21 12.820312 Z M 21 12.820312 " clip-rule="nonzero"/></clipPath></defs><g clip-path="url(#d03aa0e874)"><g clip-path="url(#218e117d98)"><path stroke-linecap="butt" transform="matrix(0.732558, 0, 0, 0.732558, 5.472227, 3.377503)" fill="none" stroke-linejoin="miter" d="M 7.999099 0.00191604 L 36.793744 0.00191604 C 41.208923 0.00191604 44.792257 3.579917 44.792257 8.000429 L 44.792257 37.781558 C 44.792257 42.202069 41.208923 45.78007 36.793744 45.78007 L 7.999099 45.78007 C 3.578587 45.78007 0.000585858 42.202069 0.000585858 37.781558 L 0.000585858 8.000429 C 0.000585858 3.579917 3.578587 0.00191604 7.999099 0.00191604 Z M 7.999099 0.00191604 " stroke="#87f1e9" stroke-width="8" stroke-opacity="1" stroke-miterlimit="4"/></g></g><g clip-path="url(#3d90c2a570)"><g clip-path="url(#654d614482)"><path stroke-linecap="butt" transform="matrix(0.732558, 0, 0, 0.732558, 3.372517, 3.377503)" fill="none" stroke-linejoin="miter" d="M 7.99657 0.00191604 L 36.791216 0.00191604 C 41.211727 0.00191604 44.789728 3.579917 44.789728 8.000429 L 44.789728 37.781558 C 44.789728 42.202069 41.211727 45.78007 36.791216 45.78007 L 7.99657 45.78007 C 3.581391 45.78007 -0.00194254 42.202069 -0.00194254 37.781558 L -0.00194254 8.000429 C -0.00194254 3.579917 3.581391 0.00191604 7.99657 0.00191604 Z M 7.99657 0.00191604 " stroke="#da004f" stroke-width="8" stroke-opacity="1" stroke-miterlimit="4"/></g></g><g clip-path="url(#426747c53a)"><g clip-path="url(#567909112f)"><path stroke-linecap="butt" transform="matrix(0.732558, 0, 0, 0.732558, 4.592487, 3.377503)" fill="none" stroke-linejoin="miter" d="M 8.000237 0.00191604 L 36.794882 0.00191604 C 41.210061 0.00191604 44.793395 3.579917 44.793395 8.000429 L 44.793395 37.781558 C 44.793395 42.202069 41.210061 45.78007 36.794882 45.78007 L 8.000237 45.78007 C 3.579725 45.78007 0.00172391 42.202069 0.00172391 37.781558 L 0.00172391 8.000429 C 0.00172391 3.579917 3.579725 0.00191604 8.000237 0.00191604 Z M 8.000237 0.00191604 " stroke="#ff914d" stroke-width="8" stroke-opacity="1" stroke-miterlimit="4"/></g></g><g clip-path="url(#a1e5ae6e95)"><g clip-path="url(#ec84e04235)"><path fill="#ff914d" d="M 28.949219 8.273438 L 33.175781 8.273438 L 33.175781 12.5 L 28.949219 12.5 Z M 28.949219 8.273438 " fill-opacity="1" fill-rule="nonzero"/></g></g><g clip-path="url(#0cb1145d6d)"><g clip-path="url(#7bacbd9b23)"><path fill="#da004f" d="M 12.449219 11.210938 L 27.109375 11.210938 L 27.109375 25.875 L 12.449219 25.875 Z M 12.449219 11.210938 " fill-opacity="1" fill-rule="nonzero"/></g></g><g clip-path="url(#dae6a2dc02)"><g clip-path="url(#a680d6f09f)"><path fill="#87f1e9" d="M 14.550781 14.253906 L 29.210938 14.253906 L 29.210938 28.914062 L 14.550781 28.914062 Z M 14.550781 14.253906 " fill-opacity="1" fill-rule="nonzero"/></g></g><g clip-path="url(#b124da0c83)"><g clip-path="url(#5e4efa2417)"><path fill="#ff914d" d="M 12.84375 11.992188 L 29.15625 11.992188 L 29.15625 28.304688 L 12.84375 28.304688 Z M 12.84375 11.992188 " fill-opacity="1" fill-rule="nonzero"/></g></g><g clip-path="url(#744dc200e3)"><g clip-path="url(#f3a03ac348)"><path fill="#ff914d" d="M 13.667969 12.820312 L 28.332031 12.820312 L 28.332031 27.480469 L 13.667969 27.480469 Z M 13.667969 12.820312 " fill-opacity="1" fill-rule="nonzero"/></g></g></svg>