<svg xmlns="http://www.w3.org/2000/svg" xmlns:xlink="http://www.w3.org/1999/xlink" width="56" zoomAndPan="magnify" viewBox="0 0 42 42" height="56" preserveAspectRatio="xMidYMid meet" version="1.0"><defs><clipPath id="57b8a3f74b"><path d="M 3.46875 3.378906 L 36.347656 3.378906 L 36.347656 37 L 3.46875 37 Z M 3.46875 3.378906 " clip-rule="nonzero"/></clipPath><clipPath id="87db937f2b"><path d="M 9.328125 3.378906 L 30.421875 3.378906 C 33.660156 3.378906 36.28125 6 36.28125 9.238281 L 36.28125 31.054688 C 36.28125 34.292969 33.660156 36.914062 30.421875 36.914062 L 9.328125 36.914062 C 6.09375 36.914062 3.46875 34.292969 3.46875 31.054688 L 3.46875 9.238281 C 3.46875 6 6.09375 3.378906 9.328125 3.378906 Z M 9.328125 3.378906 " clip-rule="nonzero"/></clipPath><clipPath id="b4c9bda8a0"><path d="M 5.714844 4.46875 L 38.59375 4.46875 L 38.59375 38.117188 L 5.714844 38.117188 Z M 5.714844 4.46875 " clip-rule="nonzero"/></clipPath><clipPath id="571ece5295"><path d="M 11.574219 4.46875 L 32.667969 4.46875 C 35.90625 4.46875 38.527344 7.09375 38.527344 10.328125 L 38.527344 32.148438 C 38.527344 35.382812 35.90625 38.007812 32.667969 38.007812 L 11.574219 38.007812 C 8.339844 38.007812 5.714844 35.382812 5.714844 32.148438 L 5.714844 10.328125 C 5.714844 7.09375 8.339844 4.46875 11.574219 4.46875 Z M 11.574219 4.46875 " clip-rule="nonzero"/></clipPath><clipPath id="719316a156"><path d="M 30.074219 9.367188 L 34.296875 9.367188 L 34.296875 13.589844 L 30.074219 13.589844 Z M 30.074219 9.367188 " clip-rule="nonzero"/></clipPath><clipPath id="14629098b1"><path d="M 32.183594 9.367188 C 31.019531 9.367188 30.074219 10.3125 30.074219 11.480469 C 30.074219 12.644531 31.019531 13.589844 32.183594 13.589844 C 33.351562 13.589844 34.296875 12.644531 34.296875 11.480469 C 34.296875 10.3125 33.351562 9.367188 32.183594 9.367188 Z M 32.183594 9.367188 " clip-rule="nonzero"/></clipPath><clipPath id="12bbd95582"><path d="M 12.546875 11.480469 L 27.207031 11.480469 L 27.207031 26.140625 L 12.546875 26.140625 Z M 12.546875 11.480469 " clip-rule="nonzero"/></clipPath><clipPath id="cfd24a1ab5"><path d="M 19.878906 11.480469 C 15.828125 11.480469 12.546875 14.761719 12.546875 18.808594 C 12.546875 22.859375 15.828125 26.140625 19.878906 26.140625 C 23.925781 26.140625 27.207031 22.859375 27.207031 18.808594 C 27.207031 14.761719 23.925781 11.480469 19.878906 11.480469 Z M 19.878906 11.480469 " clip-rule="nonzero"/></clipPath><clipPath id="0b27ce912f"><path d="M 13.964844 13.085938 L 30.28125 13.085938 L 30.28125 29.398438 L 13.964844 29.398438 Z M 13.964844 13.085938 " clip-rule="nonzero"/></clipPath><clipPath id="4de4294eb4"><path d="M 22.121094 13.085938 C 17.617188 13.085938 13.964844 16.738281 13.964844 21.242188 C 13.964844 25.746094 17.617188 29.398438 22.121094 29.398438 C 26.628906 29.398438 30.28125 25.746094 30.28125 21.242188 C 30.28125 16.738281 26.628906 13.085938 22.121094 13.085938 Z M 22.121094 13.085938 " clip-rule="nonzero"/></clipPath></defs><g clip-path="url(#57b8a3f74b)"><g clip-path="url(#87db937f2b)"><path stroke-linecap="butt" transform="matrix(0.732558, 0, 0, 0.732558, 3.469711, 3.377503)" fill="none" stroke-linejoin="miter" d="M 7.997201 0.00191604 L 36.791846 0.00191604 C 41.212358 0.00191604 44.790359 3.579917 44.790359 8.000429 L 44.790359 37.781558 C 44.790359 42.202069 41.212358 45.78007 36.791846 45.78007 L 7.997201 45.78007 C 3.582022 45.78007 -0.00131193 42.202069 -0.00131193 37.781558 L -0.00131193 8.000429 C -0.00131193 3.579917 3.582022 0.00191604 7.997201 0.00191604 Z M 7.997201 0.00191604 " stroke="#3385d7" stroke-width="8" stroke-opacity="1" stroke-miterlimit="4"/></g></g><g clip-path="url(#b4c9bda8a0)"><g clip-path="url(#571ece5295)"><path stroke-linecap="butt" transform="matrix(0.732558, 0, 0, 0.732558, 5.715263, 4.469712)" fill="none" stroke-linejoin="miter" d="M 7.99794 -0.00131286 L 36.792586 -0.00131286 C 41.213097 -0.00131286 44.791098 3.582021 44.791098 7.9972 L 44.791098 37.783661 C 44.791098 42.19884 41.213097 45.782174 36.792586 45.782174 L 7.99794 45.782174 C 3.582761 45.782174 -0.000572493 42.19884 -0.000572493 37.783661 L -0.000572493 7.9972 C -0.000572493 3.582021 3.582761 -0.00131286 7.99794 -0.00131286 Z M 7.99794 -0.00131286 " stroke="#ff914d" stroke-width="8" stroke-opacity="1" stroke-miterlimit="4"/></g></g><g clip-path="url(#719316a156)"><g clip-path="url(#14629098b1)"><path fill="#ff914d" d="M 30.074219 9.367188 L 34.296875 9.367188 L 34.296875 13.589844 L 30.074219 13.589844 Z M 30.074219 9.367188 " fill-opacity="1" fill-rule="nonzero"/></g></g><g clip-path="url(#12bbd95582)"><g clip-path="url(#cfd24a1ab5)"><path fill="#3385d7" d="M 12.546875 11.480469 L 27.207031 11.480469 L 27.207031 26.140625 L 12.546875 26.140625 Z M 12.546875 11.480469 " fill-opacity="1" fill-rule="nonzero"/></g></g><g clip-path="url(#0b27ce912f)"><g clip-path="url(#4de4294eb4)"><path fill="#ff914d" d="M 13.964844 13.085938 L 30.28125 13.085938 L 30.28125 29.398438 L 13.964844 29.398438 Z M 13.964844 13.085938 " fill-opacity="1" fill-rule="nonzero"/></g></g></svg>