<?xml version="1.0" encoding="UTF-8"?>
<svg xmlns="http://www.w3.org/2000/svg" xmlns:xlink="http://www.w3.org/1999/xlink" width="50px" height="px" viewBox="0 0 50 50" version="1.1">
<defs>
<clipPath id="clip1">
  <path d="M 4.488281 4.429688 L 42.738281 4.429688 L 42.738281 43.667969 L 4.488281 43.667969 Z M 4.488281 4.429688 "/>
</clipPath>
<clipPath id="clip2">
  <path d="M 12.488281 4.429688 L 34.859375 4.429688 C 39.277344 4.429688 42.859375 8.007812 42.859375 12.429688 L 42.859375 35.648438 C 42.859375 40.066406 39.277344 43.648438 34.859375 43.648438 L 12.488281 43.648438 C 8.070312 43.648438 4.488281 40.066406 4.488281 35.648438 L 4.488281 12.429688 C 4.488281 8.007812 8.070312 4.429688 12.488281 4.429688 Z M 12.488281 4.429688 "/>
</clipPath>
<clipPath id="clip3">
  <path d="M 14.136719 14.5 L 33.210938 14.5 L 33.210938 33.574219 L 14.136719 33.574219 Z M 14.136719 14.5 "/>
</clipPath>
<clipPath id="clip4">
  <path d="M 23.675781 14.5 C 18.40625 14.5 14.136719 18.769531 14.136719 24.039062 C 14.136719 29.304688 18.40625 33.574219 23.675781 33.574219 C 28.941406 33.574219 33.210938 29.304688 33.210938 24.039062 C 33.210938 18.769531 28.941406 14.5 23.675781 14.5 Z M 23.675781 14.5 "/>
</clipPath>
<clipPath id="clip5">
  <path d="M 8.074219 7.308594 L 45.574219 7.308594 L 45.574219 45.558594 L 8.074219 45.558594 Z M 8.074219 7.308594 "/>
</clipPath>
<clipPath id="clip6">
  <path d="M 14.074219 7.308594 L 39.511719 7.308594 C 42.824219 7.308594 45.507812 9.992188 45.507812 13.304688 L 45.507812 39.570312 C 45.507812 42.882812 42.824219 45.570312 39.511719 45.570312 L 14.074219 45.570312 C 10.761719 45.570312 8.074219 42.882812 8.074219 39.570312 L 8.074219 13.304688 C 8.074219 9.992188 10.761719 7.308594 14.074219 7.308594 Z M 14.074219 7.308594 "/>
</clipPath>
<clipPath id="clip7">
  <path d="M 34.34375 12.792969 L 40.1875 12.792969 L 40.1875 18.636719 L 34.34375 18.636719 Z M 34.34375 12.792969 "/>
</clipPath>
<clipPath id="clip8">
  <path d="M 37.265625 12.792969 C 35.652344 12.792969 34.34375 14.101562 34.34375 15.714844 C 34.34375 17.328125 35.652344 18.636719 37.265625 18.636719 C 38.878906 18.636719 40.1875 17.328125 40.1875 15.714844 C 40.1875 14.101562 38.878906 12.792969 37.265625 12.792969 Z M 37.265625 12.792969 "/>
</clipPath>
<clipPath id="clip9">
  <path d="M 17.230469 16.632812 L 36.351562 16.632812 L 36.351562 35.753906 L 17.230469 35.753906 Z M 17.230469 16.632812 "/>
</clipPath>
<clipPath id="clip10">
  <path d="M 26.792969 16.632812 C 21.511719 16.632812 17.230469 20.914062 17.230469 26.195312 C 17.230469 31.476562 21.511719 35.753906 26.792969 35.753906 C 32.074219 35.753906 36.351562 31.476562 36.351562 26.195312 C 36.351562 20.914062 32.074219 16.632812 26.792969 16.632812 Z M 26.792969 16.632812 "/>
</clipPath>
</defs>
<g id="surface1">
<g clip-path="url(#clip1)" clip-rule="nonzero">
<g clip-path="url(#clip2)" clip-rule="nonzero">
<path style="fill:none;stroke-width:34;stroke-linecap:butt;stroke-linejoin:miter;stroke:rgb(20%,52.156863%,84.313725%);stroke-opacity:1;stroke-miterlimit:4;" d="M 31.999864 0.00652067 L 121.484239 0.00652067 C 139.156114 0.00652067 153.484239 14.319021 153.484239 32.006521 L 153.484239 124.881521 C 153.484239 142.553396 139.156114 156.881521 121.484239 156.881521 L 31.999864 156.881521 C 14.327989 156.881521 -0.000136333 142.553396 -0.000136333 124.881521 L -0.000136333 32.006521 C -0.000136333 14.319021 14.327989 0.00652067 31.999864 0.00652067 Z M 31.999864 0.00652067 " transform="matrix(0.25,0,0,0.25,4.488315,4.428057)"/>
</g>
</g>
<g clip-path="url(#clip3)" clip-rule="nonzero">
<g clip-path="url(#clip4)" clip-rule="nonzero">
<path style=" stroke:none;fill-rule:nonzero;fill:rgb(20%,52.156863%,84.313725%);fill-opacity:1;" d="M 14.136719 14.5 L 33.210938 14.5 L 33.210938 33.574219 L 14.136719 33.574219 Z M 14.136719 14.5 "/>
</g>
</g>
<g clip-path="url(#clip5)" clip-rule="nonzero">
<g clip-path="url(#clip6)" clip-rule="nonzero">
<path style="fill:none;stroke-width:32;stroke-linecap:butt;stroke-linejoin:miter;stroke:rgb(100%,56.862745%,30.196078%);stroke-opacity:1;stroke-miterlimit:4;" d="M 23.998426 0.00700967 L 125.748426 0.00700967 C 138.998426 0.00700967 149.732801 10.741385 149.732801 23.991385 L 149.732801 129.053885 C 149.732801 142.303885 138.998426 153.053885 125.748426 153.053885 L 23.998426 153.053885 C 10.748426 153.053885 -0.00157433 142.303885 -0.00157433 129.053885 L -0.00157433 23.991385 C -0.00157433 10.741385 10.748426 0.00700967 23.998426 0.00700967 Z M 23.998426 0.00700967 " transform="matrix(0.25,0,0,0.25,8.074612,7.306841)"/>
</g>
</g>
<g clip-path="url(#clip7)" clip-rule="nonzero">
<g clip-path="url(#clip8)" clip-rule="nonzero">
<path style=" stroke:none;fill-rule:nonzero;fill:rgb(100%,56.862745%,30.196078%);fill-opacity:1;" d="M 34.34375 12.792969 L 40.1875 12.792969 L 40.1875 18.636719 L 34.34375 18.636719 Z M 34.34375 12.792969 "/>
</g>
</g>
<g clip-path="url(#clip9)" clip-rule="nonzero">
<g clip-path="url(#clip10)" clip-rule="nonzero">
<path style=" stroke:none;fill-rule:nonzero;fill:rgb(100%,56.862745%,30.196078%);fill-opacity:1;" d="M 17.230469 16.632812 L 36.351562 16.632812 L 36.351562 35.753906 L 17.230469 35.753906 Z M 17.230469 16.632812 "/>
</g>
</g>
</g>
</svg>
