<?xml version="1.0" encoding="UTF-8"?>
<svg xmlns="http://www.w3.org/2000/svg" xmlns:xlink="http://www.w3.org/1999/xlink" width="50px" height="50px" viewBox="0 0 50 50" version="1.1">
<defs>
<clipPath id="clip1">
  <path d="M 7.332031 1.429688 L 43.667969 1.429688 L 43.667969 44.929688 L 7.332031 44.929688 Z M 7.332031 1.429688 "/>
</clipPath>
<clipPath id="clip2">
  <path d="M 4.667969 5.140625 L 40 5.140625 L 40 47.640625 L 4.667969 47.640625 Z M 4.667969 5.140625 "/>
</clipPath>
</defs>
<g id="surface1">
<g clip-path="url(#clip1)" clip-rule="nonzero">
<path style=" stroke:none;fill-rule:nonzero;fill:rgb(20%,52.156863%,84.313725%);fill-opacity:1;" d="M 43.59375 3.125 C 43.59375 2.011719 42.972656 1.359375 41.890625 1.4375 C 41.5625 1.4375 39.214844 1.90625 20.007812 5.570312 C 19.855469 5.570312 19.140625 5.761719 18.746094 6.097656 C 18.359375 6.410156 18.148438 6.832031 18.074219 7.332031 C 17.753906 8.636719 18.535156 32.136719 17.585938 33.242188 C 17.171875 33.710938 16.679688 33.84375 16.117188 33.953125 C 12.734375 34.554688 10.488281 34.871094 8.882812 36.425781 C 6.125 39.164062 7.558594 43.949219 11.625 44.726562 C 13.148438 45.011719 16.015625 44.621094 17.59375 43.730469 C 18.988281 43 20.042969 41.6875 20.4375 39.941406 C 20.777344 38.445312 20.675781 39.480469 20.675781 16.976562 C 20.675781 15.871094 20.976562 15.585938 21.9375 15.375 C 21.9375 15.375 38.652344 12.191406 39.421875 12.054688 C 40.503906 11.867188 41.023438 12.164062 41.023438 13.238281 C 41.023438 28.492188 41.210938 28.195312 40.609375 28.882812 C 40.195312 29.355469 39.707031 29.488281 39.140625 29.59375 C 35.761719 30.199219 33.511719 30.515625 31.910156 32.066406 C 29.886719 34.082031 29.914062 37.273438 32.164062 39.199219 C 34.007812 40.714844 35.929688 40.609375 38.238281 40.179688 C 40.863281 39.679688 42.824219 38.203125 43.425781 35.574219 L 43.425781 35.578125 C 43.699219 34.378906 43.609375 36.152344 43.59375 3.125 Z M 43.59375 3.125 "/>
</g>
<path style="fill:none;stroke-width:10;stroke-linecap:butt;stroke-linejoin:miter;stroke:rgb(20%,52.156863%,84.313725%);stroke-opacity:1;stroke-miterlimit:4;" d="M -0.00613433 4.993155 L 92.040741 4.993155 " transform="matrix(0,0.25,-0.25,0,41.568601,9.903877)"/>
<path style="fill:none;stroke-width:10;stroke-linecap:butt;stroke-linejoin:miter;stroke:rgb(20%,52.156863%,84.313725%);stroke-opacity:1;stroke-miterlimit:4;" d="M 0.00502767 5.005657 L 92.036278 5.005657 " transform="matrix(0,0.25,-0.25,0,18.368602,14.846399)"/>
<g clip-path="url(#clip2)" clip-rule="nonzero">
<path style=" stroke:none;fill-rule:nonzero;fill:rgb(93.333333%,54.901961%,24.705882%);fill-opacity:1;" d="M 39.863281 6.792969 C 39.863281 5.707031 39.261719 5.074219 38.207031 5.148438 C 37.886719 5.148438 35.601562 5.605469 16.902344 9.171875 C 16.757812 9.171875 16.0625 9.359375 15.675781 9.6875 C 15.296875 9.992188 15.097656 10.402344 15.023438 10.886719 C 14.710938 12.160156 15.472656 35.035156 14.546875 36.109375 C 14.140625 36.566406 13.664062 36.699219 13.117188 36.800781 C 9.824219 37.390625 7.636719 37.699219 6.078125 39.210938 C 3.390625 41.878906 4.785156 46.535156 8.746094 47.289062 C 10.226562 47.570312 13.019531 47.1875 14.554688 46.320312 C 15.914062 45.609375 16.9375 44.332031 17.324219 42.632812 C 17.65625 41.175781 17.554688 42.183594 17.554688 20.277344 C 17.554688 19.203125 17.847656 18.921875 18.78125 18.714844 C 18.78125 18.714844 35.054688 15.617188 35.804688 15.488281 C 36.859375 15.300781 37.363281 15.589844 37.363281 16.636719 C 37.363281 31.488281 37.546875 31.199219 36.960938 31.867188 C 36.554688 32.324219 36.078125 32.457031 35.53125 32.558594 C 32.238281 33.148438 30.050781 33.457031 28.492188 34.96875 C 26.523438 36.925781 26.550781 40.035156 28.738281 41.910156 C 30.535156 43.386719 32.40625 43.285156 34.652344 42.863281 C 37.207031 42.375 39.117188 40.9375 39.703125 38.382812 L 39.699219 38.386719 C 39.964844 37.21875 39.882812 38.945312 39.863281 6.792969 Z M 39.863281 6.792969 "/>
</g>
</g>
</svg>
