<svg xmlns="http://www.w3.org/2000/svg" xmlns:xlink="http://www.w3.org/1999/xlink" width="56" zoomAndPan="magnify" viewBox="0 0 42 42" height="56" preserveAspectRatio="xMidYMid meet" version="1.0"><defs><clipPath id="f226950fbc"><path d="M 3.378906 8.417969 L 37.207031 8.417969 L 37.207031 32.808594 L 3.378906 32.808594 Z M 3.378906 8.417969 " clip-rule="nonzero"/></clipPath><clipPath id="524639648f"><path d="M 4.738281 8.417969 L 38.566406 8.417969 L 38.566406 32.808594 L 4.738281 32.808594 Z M 4.738281 8.417969 " clip-rule="nonzero"/></clipPath><clipPath id="ff3d672024"><path d="M 4.058594 8.417969 L 37.886719 8.417969 L 37.886719 32.808594 L 4.058594 32.808594 Z M 4.058594 8.417969 " clip-rule="nonzero"/></clipPath></defs><g clip-path="url(#f226950fbc)"><path fill="#da004f" d="M 33.613281 8.417969 L 7.019531 8.417969 C 6.539062 8.417969 6.074219 8.511719 5.628906 8.695312 C 5.1875 8.878906 4.792969 9.140625 4.453125 9.480469 C 4.113281 9.820312 3.851562 10.214844 3.667969 10.65625 C 3.484375 11.101562 3.390625 11.566406 3.390625 12.046875 L 3.390625 28.972656 C 3.390625 29.453125 3.484375 29.914062 3.667969 30.359375 C 3.851562 30.804688 4.113281 31.195312 4.453125 31.535156 C 4.792969 31.875 5.1875 32.136719 5.628906 32.320312 C 6.074219 32.507812 6.539062 32.597656 7.019531 32.597656 L 33.613281 32.597656 C 34.097656 32.597656 34.558594 32.507812 35.003906 32.320312 C 35.445312 32.136719 35.839844 31.875 36.179688 31.535156 C 36.519531 31.195312 36.78125 30.804688 36.964844 30.359375 C 37.148438 29.914062 37.242188 29.453125 37.242188 28.972656 L 37.242188 12.046875 C 37.242188 11.566406 37.148438 11.101562 36.964844 10.65625 C 36.78125 10.214844 36.519531 9.820312 36.179688 9.480469 C 35.839844 9.140625 35.445312 8.878906 35.003906 8.695312 C 34.558594 8.511719 34.097656 8.417969 33.613281 8.417969 Z M 7.019531 10.835938 L 33.613281 10.835938 C 33.847656 10.839844 34.066406 10.902344 34.261719 11.03125 C 34.457031 11.160156 34.605469 11.328125 34.703125 11.542969 L 22.527344 20.910156 C 22.210938 21.152344 21.863281 21.339844 21.484375 21.46875 C 21.105469 21.597656 20.714844 21.660156 20.316406 21.660156 C 19.917969 21.660156 19.527344 21.597656 19.148438 21.46875 C 18.769531 21.339844 18.421875 21.152344 18.105469 20.910156 L 5.929688 11.542969 C 6.027344 11.328125 6.175781 11.160156 6.371094 11.03125 C 6.570312 10.902344 6.785156 10.839844 7.019531 10.835938 Z M 33.613281 30.179688 L 7.019531 30.179688 C 6.859375 30.179688 6.703125 30.148438 6.554688 30.089844 C 6.40625 30.027344 6.277344 29.9375 6.164062 29.824219 C 6.050781 29.710938 5.960938 29.582031 5.902344 29.433594 C 5.839844 29.285156 5.808594 29.132812 5.808594 28.972656 L 5.808594 14.5 L 16.628906 22.828125 C 17.160156 23.230469 17.738281 23.542969 18.371094 23.757812 C 19.003906 23.972656 19.652344 24.078125 20.316406 24.078125 C 20.984375 24.078125 21.632812 23.972656 22.265625 23.757812 C 22.894531 23.542969 23.476562 23.230469 24.003906 22.828125 L 34.824219 14.5 L 34.824219 28.972656 C 34.824219 29.132812 34.792969 29.285156 34.730469 29.433594 C 34.671875 29.582031 34.582031 29.710938 34.46875 29.824219 C 34.355469 29.9375 34.226562 30.027344 34.078125 30.089844 C 33.929688 30.148438 33.773438 30.179688 33.613281 30.179688 Z M 33.613281 30.179688 " fill-opacity="1" fill-rule="nonzero"/></g><g clip-path="url(#524639648f)"><path fill="#87f1e9" d="M 34.976562 8.417969 L 8.378906 8.417969 C 7.898438 8.417969 7.433594 8.511719 6.992188 8.695312 C 6.546875 8.878906 6.152344 9.140625 5.8125 9.480469 C 5.472656 9.820312 5.210938 10.214844 5.027344 10.65625 C 4.84375 11.101562 4.75 11.566406 4.75 12.046875 L 4.75 28.972656 C 4.75 29.453125 4.84375 29.914062 5.027344 30.359375 C 5.210938 30.804688 5.472656 31.195312 5.8125 31.535156 C 6.152344 31.875 6.546875 32.136719 6.992188 32.320312 C 7.433594 32.507812 7.898438 32.597656 8.378906 32.597656 L 34.976562 32.597656 C 35.457031 32.597656 35.917969 32.507812 36.363281 32.320312 C 36.808594 32.136719 37.199219 31.875 37.539062 31.535156 C 37.878906 31.195312 38.140625 30.804688 38.324219 30.359375 C 38.511719 29.914062 38.601562 29.453125 38.601562 28.972656 L 38.601562 12.046875 C 38.601562 11.566406 38.511719 11.101562 38.324219 10.65625 C 38.140625 10.214844 37.878906 9.820312 37.539062 9.480469 C 37.199219 9.140625 36.808594 8.878906 36.363281 8.695312 C 35.917969 8.511719 35.457031 8.417969 34.976562 8.417969 Z M 8.378906 10.835938 L 34.976562 10.835938 C 35.210938 10.839844 35.425781 10.902344 35.621094 11.03125 C 35.816406 11.160156 35.964844 11.328125 36.0625 11.542969 L 23.886719 20.910156 C 23.570312 21.152344 23.222656 21.339844 22.84375 21.46875 C 22.464844 21.597656 22.078125 21.660156 21.675781 21.660156 C 21.277344 21.660156 20.886719 21.597656 20.507812 21.46875 C 20.128906 21.339844 19.78125 21.152344 19.464844 20.910156 L 7.289062 11.542969 C 7.386719 11.328125 7.535156 11.160156 7.730469 11.03125 C 7.929688 10.902344 8.144531 10.839844 8.378906 10.835938 Z M 34.976562 30.179688 L 8.378906 30.179688 C 8.21875 30.179688 8.0625 30.148438 7.914062 30.089844 C 7.769531 30.027344 7.636719 29.9375 7.523438 29.824219 C 7.410156 29.710938 7.324219 29.582031 7.261719 29.433594 C 7.199219 29.285156 7.167969 29.132812 7.167969 28.972656 L 7.167969 14.5 L 17.992188 22.828125 C 18.519531 23.230469 19.101562 23.542969 19.730469 23.757812 C 20.363281 23.972656 21.011719 24.078125 21.679688 24.078125 C 22.34375 24.078125 22.992188 23.972656 23.625 23.757812 C 24.257812 23.542969 24.835938 23.230469 25.367188 22.828125 L 36.183594 14.5 L 36.183594 28.972656 C 36.183594 29.132812 36.152344 29.285156 36.09375 29.433594 C 36.03125 29.582031 35.941406 29.710938 35.828125 29.824219 C 35.714844 29.9375 35.585938 30.027344 35.4375 30.089844 C 35.289062 30.148438 35.136719 30.179688 34.976562 30.179688 Z M 34.976562 30.179688 " fill-opacity="1" fill-rule="nonzero"/></g><g clip-path="url(#ff3d672024)"><path fill="#ff914d" d="M 34.296875 8.417969 L 7.699219 8.417969 C 7.21875 8.417969 6.753906 8.511719 6.308594 8.695312 C 5.867188 8.878906 5.472656 9.140625 5.132812 9.480469 C 4.792969 9.820312 4.53125 10.214844 4.347656 10.65625 C 4.164062 11.101562 4.070312 11.566406 4.070312 12.046875 L 4.070312 28.972656 C 4.070312 29.453125 4.164062 29.914062 4.347656 30.359375 C 4.53125 30.804688 4.792969 31.195312 5.132812 31.535156 C 5.472656 31.875 5.867188 32.136719 6.308594 32.320312 C 6.753906 32.507812 7.21875 32.597656 7.699219 32.597656 L 34.296875 32.597656 C 34.777344 32.597656 35.238281 32.507812 35.683594 32.320312 C 36.128906 32.136719 36.519531 31.875 36.859375 31.535156 C 37.199219 31.195312 37.460938 30.804688 37.644531 30.359375 C 37.828125 29.914062 37.921875 29.453125 37.921875 28.972656 L 37.921875 12.046875 C 37.921875 11.566406 37.828125 11.101562 37.644531 10.65625 C 37.460938 10.214844 37.199219 9.820312 36.859375 9.480469 C 36.519531 9.140625 36.128906 8.878906 35.683594 8.695312 C 35.238281 8.511719 34.777344 8.417969 34.296875 8.417969 Z M 7.699219 10.835938 L 34.296875 10.835938 C 34.53125 10.839844 34.746094 10.902344 34.941406 11.03125 C 35.136719 11.160156 35.285156 11.328125 35.382812 11.542969 L 23.207031 20.910156 C 22.890625 21.152344 22.542969 21.339844 22.164062 21.46875 C 21.785156 21.597656 21.398438 21.660156 20.996094 21.660156 C 20.597656 21.660156 20.207031 21.597656 19.828125 21.46875 C 19.449219 21.339844 19.101562 21.152344 18.785156 20.910156 L 6.609375 11.542969 C 6.707031 11.328125 6.855469 11.160156 7.050781 11.03125 C 7.25 10.902344 7.464844 10.839844 7.699219 10.835938 Z M 34.296875 30.179688 L 7.699219 30.179688 C 7.539062 30.179688 7.382812 30.148438 7.234375 30.089844 C 7.085938 30.027344 6.957031 29.9375 6.84375 29.824219 C 6.730469 29.710938 6.644531 29.582031 6.582031 29.433594 C 6.519531 29.285156 6.488281 29.132812 6.488281 28.972656 L 6.488281 14.5 L 17.3125 22.828125 C 17.839844 23.230469 18.417969 23.542969 19.050781 23.757812 C 19.683594 23.972656 20.332031 24.078125 20.996094 24.078125 C 21.664062 24.078125 22.3125 23.972656 22.945312 23.757812 C 23.578125 23.542969 24.15625 23.230469 24.683594 22.828125 L 35.503906 14.5 L 35.503906 28.972656 C 35.503906 29.132812 35.472656 29.285156 35.410156 29.433594 C 35.351562 29.582031 35.261719 29.710938 35.148438 29.824219 C 35.035156 29.9375 34.90625 30.027344 34.757812 30.089844 C 34.609375 30.148438 34.457031 30.179688 34.296875 30.179688 Z M 34.296875 30.179688 " fill-opacity="1" fill-rule="nonzero"/></g></svg>