<?xml version="1.0" encoding="UTF-8"?>
<svg xmlns="http://www.w3.org/2000/svg" xmlns:xlink="http://www.w3.org/1999/xlink" width="50px" height="px" viewBox="0 0 50 50" version="1.1">
<defs>
<clipPath id="clip1">
  <path d="M 9.332031 2.445312 L 41.667969 2.445312 L 41.667969 44.332031 L 9.332031 44.332031 Z M 9.332031 2.445312 "/>
</clipPath>
</defs>
<g id="surface1">
<g clip-path="url(#clip1)" clip-rule="nonzero">
<path style=" stroke:none;fill-rule:nonzero;fill:rgb(20%,52.156863%,84.313725%);fill-opacity:1;" d="M 28.050781 2.445312 L 24.851562 2.445312 L 24.851562 31.070312 C 22.808594 29.941406 20.019531 29.574219 17.148438 30.269531 C 12.113281 31.472656 8.753906 35.484375 9.652344 39.21875 C 10.550781 42.957031 15.363281 45 20.402344 43.785156 C 25.011719 42.683594 28.210938 39.238281 28.042969 35.800781 L 28.050781 35.800781 L 28.050781 12.390625 C 33.28125 16.25 37.878906 15.734375 38.726562 24.925781 C 48.882812 9.480469 28.476562 9.886719 28.050781 2.445312 Z M 28.050781 2.445312 "/>
</g>
<path style=" stroke:none;fill-rule:nonzero;fill:rgb(100%,56.862745%,30.196078%);fill-opacity:1;" d="M 24.882812 5 L 21.59375 5 L 21.59375 34.46875 C 19.488281 33.304688 16.617188 32.925781 13.664062 33.640625 C 8.476562 34.882812 5.019531 39.007812 5.945312 42.855469 C 6.871094 46.703125 11.824219 48.804688 17.011719 47.554688 C 21.757812 46.421875 25.046875 42.875 24.875 39.335938 L 24.882812 39.335938 L 24.882812 15.238281 C 30.269531 19.210938 35 18.679688 35.875 28.140625 C 46.332031 12.242188 25.324219 12.660156 24.882812 5 Z M 24.882812 5 "/>
</g>
</svg>
