<svg xmlns="http://www.w3.org/2000/svg" xmlns:xlink="http://www.w3.org/1999/xlink" width="56" zoomAndPan="magnify" viewBox="0 0 42 42" height="56" preserveAspectRatio="xMidYMid meet" version="1.0"><defs><clipPath id="e502b3f9ed"><path d="M 10.441406 5.980469 L 34 5.980469 L 34 36 L 10.441406 36 Z M 10.441406 5.980469 " clip-rule="nonzero"/></clipPath><clipPath id="31d3c8f6e2"><path d="M 7 5.226562 L 30 5.226562 L 30 35 L 7 35 Z M 7 5.226562 " clip-rule="nonzero"/></clipPath><clipPath id="833d583aa8"><path d="M 9 5.226562 L 33 5.226562 L 33 35.992188 L 9 35.992188 Z M 9 5.226562 " clip-rule="nonzero"/></clipPath></defs><g clip-path="url(#e502b3f9ed)"><path fill="#87f1e9" d="M 23.972656 5.980469 L 21.734375 5.980469 L 21.734375 26.03125 C 20.304688 25.238281 18.347656 24.984375 16.339844 25.46875 C 12.8125 26.3125 10.457031 29.121094 11.089844 31.738281 C 11.71875 34.355469 15.089844 35.785156 18.617188 34.9375 C 21.847656 34.164062 24.085938 31.75 23.96875 29.34375 L 23.972656 29.34375 L 23.972656 12.945312 C 27.636719 15.648438 30.859375 15.289062 31.453125 21.726562 C 38.566406 10.910156 24.273438 11.195312 23.972656 5.980469 Z M 23.972656 5.980469 " fill-opacity="1" fill-rule="nonzero"/></g><g clip-path="url(#31d3c8f6e2)"><path fill="#da004f" d="M 20.464844 5.226562 L 18.230469 5.226562 L 18.230469 25.246094 C 16.800781 24.457031 14.847656 24.199219 12.84375 24.683594 C 9.320312 25.527344 6.96875 28.332031 7.597656 30.945312 C 8.226562 33.558594 11.59375 34.984375 15.117188 34.136719 C 18.339844 33.367188 20.578125 30.957031 20.460938 28.554688 L 20.464844 28.554688 L 20.464844 12.179688 C 24.125 14.878906 27.339844 14.519531 27.933594 20.945312 C 35.035156 10.148438 20.765625 10.433594 20.464844 5.226562 Z M 20.464844 5.226562 " fill-opacity="1" fill-rule="nonzero"/></g><g clip-path="url(#833d583aa8)"><path fill="#ff914d" d="M 22.382812 5.226562 L 20.085938 5.226562 L 20.085938 25.785156 C 18.621094 24.972656 16.613281 24.710938 14.554688 25.207031 C 10.9375 26.074219 8.523438 28.953125 9.167969 31.636719 C 9.816406 34.320312 13.273438 35.785156 16.890625 34.917969 C 20.203125 34.125 22.496094 31.652344 22.378906 29.183594 L 22.382812 29.183594 L 22.382812 12.367188 C 26.140625 15.140625 29.441406 14.769531 30.050781 21.371094 C 37.34375 10.28125 22.691406 10.570312 22.382812 5.226562 Z M 22.382812 5.226562 " fill-opacity="1" fill-rule="nonzero"/></g></svg>