<svg xmlns="http://www.w3.org/2000/svg" xmlns:xlink="http://www.w3.org/1999/xlink" width="50" zoomAndPan="magnify" viewBox="0 0 37.5 37.499999" height="50" preserveAspectRatio="xMidYMid meet" version="1.0"><defs><clipPath id="2386bf8e4c"><path d="M 2 2.039062 L 29 2.039062 L 29 36.824219 L 2 36.824219 Z M 2 2.039062 " clip-rule="nonzero"/></clipPath></defs><path fill="#3385d7" d="M 20.363281 0 L 17.8125 0 L 17.8125 22.847656 C 16.179688 21.945312 13.953125 21.652344 11.664062 22.207031 C 7.640625 23.167969 4.960938 26.371094 5.679688 29.351562 C 6.394531 32.335938 10.238281 33.964844 14.257812 32.996094 C 17.9375 32.117188 20.492188 29.367188 20.355469 26.625 L 20.363281 26.625 L 20.363281 7.9375 C 24.539062 11.019531 28.207031 10.609375 28.882812 17.941406 C 36.992188 5.617188 20.703125 5.941406 20.363281 0 Z M 20.363281 0 " fill-opacity="1" fill-rule="nonzero"/><g clip-path="url(#2386bf8e4c)"><path fill="#ff914d" d="M 17.839844 2.039062 L 15.210938 2.039062 L 15.210938 25.558594 C 13.535156 24.628906 11.242188 24.328125 8.886719 24.894531 C 4.746094 25.886719 1.988281 29.183594 2.722656 32.25 C 3.460938 35.320312 7.417969 36.996094 11.554688 36.003906 C 15.34375 35.097656 17.972656 32.265625 17.832031 29.441406 L 17.839844 29.441406 L 17.839844 10.210938 C 22.136719 13.378906 25.914062 12.957031 26.609375 20.507812 C 34.953125 7.820312 18.191406 8.152344 17.839844 2.039062 Z M 17.839844 2.039062 " fill-opacity="1" fill-rule="nonzero"/></g></svg>