<svg xmlns="http://www.w3.org/2000/svg" xmlns:xlink="http://www.w3.org/1999/xlink" width="56" zoomAndPan="magnify" viewBox="0 0 42 42" height="56" preserveAspectRatio="xMidYMid meet" version="1.0"><defs><clipPath id="faa70a0c58"><path d="M 9 5.226562 L 33 5.226562 L 33 35.992188 L 9 35.992188 Z M 9 5.226562 " clip-rule="nonzero"/></clipPath><clipPath id="224612765b"><path d="M 7 5.226562 L 31 5.226562 L 31 35.992188 L 7 35.992188 Z M 7 5.226562 " clip-rule="nonzero"/></clipPath></defs><g clip-path="url(#faa70a0c58)"><path fill="#3385d7" d="M 22.433594 5.226562 L 20.136719 5.226562 L 20.136719 25.785156 C 18.667969 24.972656 16.664062 24.710938 14.605469 25.207031 C 10.984375 26.074219 8.574219 28.953125 9.21875 31.636719 C 9.863281 34.320312 13.320312 35.785156 16.941406 34.917969 C 20.25 34.125 22.546875 31.652344 22.425781 29.183594 L 22.433594 29.183594 L 22.433594 12.367188 C 26.1875 15.140625 29.492188 14.769531 30.101562 21.371094 C 37.394531 10.28125 22.738281 10.570312 22.433594 5.226562 Z M 22.433594 5.226562 " fill-opacity="1" fill-rule="nonzero"/></g><g clip-path="url(#224612765b)"><path fill="#ff914d" d="M 20.449219 5.226562 L 18.152344 5.226562 L 18.152344 25.785156 C 16.683594 24.972656 14.679688 24.710938 12.621094 25.207031 C 9.003906 26.074219 6.589844 28.953125 7.234375 31.636719 C 7.878906 34.320312 11.335938 35.785156 14.957031 34.917969 C 18.265625 34.125 20.5625 31.652344 20.441406 29.183594 L 20.449219 29.183594 L 20.449219 12.367188 C 24.207031 15.140625 27.507812 14.769531 28.117188 21.371094 C 35.410156 10.28125 20.753906 10.570312 20.449219 5.226562 Z M 20.449219 5.226562 " fill-opacity="1" fill-rule="nonzero"/></g></svg>